# xmcd
#
# Track frame offsets:
#       150
#       13858
#       34333
#       36512
#       49191
#
# Disc length: 882 seconds
#
# Revision: 2
# Processed by: cddbd v1.5.1PL2 Copyright (c) Steve Scherf et al.
# Submitted via: MusiCat 1.0
#
DISCID=41037005
DTITLE=Popdrive - Popdrive
DYEAR=1900
DGENRE=
TTITLE0=Une autre vie
TTITLE1=Dans l'ombre
TTITLE2=Mo. Wow Spliff
TTITLE3=Oublions qui nous sommes
TTITLE4=Mademoiselle
EXTD=0\n\n\n
EXTT0=
EXTT1=
EXTT2=
EXTT3=
EXTT4=
PLAYORDER=
